<svg width="24" height="24" viewBox="0 0 24 24" fill="currentColor" xmlns="http://www.w3.org/2000/svg">
	<path fill-rule="evenodd" d="M6.48882 18C6.22495 18 5.96582 17.9299 5.73789 17.7971C5.50995 17.6643 5.32137 17.4734 5.1914 17.2439C5.06144 17.0144 4.99473 16.7546 4.99811 16.4909C5.00148 16.2273 5.07481 15.9693 5.21061 15.7432L10.7248 6.72315C10.8573 6.50259 11.0446 6.32006 11.2686 6.19333C11.4927 6.06661 11.7457 6 12.0031 6C12.2605 6 12.5136 6.06661 12.7376 6.19333C12.9616 6.32006 13.149 6.50259 13.2814 6.72315L18.7854 15.7432C18.9212 15.9693 18.9945 16.2273 18.9979 16.4909C19.0012 16.7546 18.9345 17.0144 18.8046 17.2439C18.6746 17.4734 18.486 17.6643 18.2581 17.7971C18.0301 17.9299 17.771 18 17.5072 18H6.48882ZM11.0681 9.99764C11.0325 9.45759 11.461 9 12.0022 9C12.5441 9 12.9728 9.45871 12.9362 9.99938L12.638 12.4019C12.6152 12.7386 12.3355 13 11.9981 13C11.6602 13 11.3802 12.7379 11.358 12.4007L11.0681 9.99764ZM12.0031 14C11.4508 14 11.0024 14.4477 11.0024 15C11.0024 15.5523 11.4508 16 12.0031 16C12.5554 16 13.0039 15.5523 13.0039 15C13.0039 14.4477 12.5554 14 12.0031 14Z" />
</svg>
