<svg width="24" height="24" viewBox="0 0 24 24" fill="currentColor" xmlns="http://www.w3.org/2000/svg">
	<path d="M3.66455 5.33334C3.66455 4.41286 4.41074 3.66667 5.33122 3.66667H9.49788C10.4184 3.66667 11.1646 4.41286 11.1646 5.33334V11.1667C11.1646 12.0871 10.4184 12.8333 9.49788 12.8333H5.33122C4.41074 12.8333 3.66455 12.0871 3.66455 11.1667V5.33334ZM9.49788 5.33334H5.33122V11.1667H9.49788V5.33334Z" />
	<path d="M12.8315 5.33334C12.8315 4.41286 13.5777 3.66667 14.4982 3.66667H18.6649C19.5854 3.66667 20.3315 4.41286 20.3315 5.33334V7.83334C20.3315 8.75381 19.5854 9.50001 18.6649 9.50001H14.4982C13.5777 9.50001 12.8315 8.75381 12.8315 7.83334V5.33334ZM18.6649 5.33334H14.4982V7.83334H18.6649V5.33334Z" />
	<path d="M12.8315 12.8333C12.8315 11.9129 13.5777 11.1667 14.4982 11.1667H18.6649C19.5854 11.1667 20.3315 11.9129 20.3315 12.8333V18.6667C20.3315 19.5871 19.5854 20.3333 18.6649 20.3333H14.4982C13.5777 20.3333 12.8315 19.5871 12.8315 18.6667V12.8333ZM18.6649 12.8333H14.4982V18.6667H18.6649V12.8333Z" />
	<path d="M3.66455 16.1667C3.66455 15.2462 4.41074 14.5 5.33122 14.5H9.49788C10.4184 14.5 11.1646 15.2462 11.1646 16.1667V18.6667C11.1646 19.5871 10.4184 20.3333 9.49788 20.3333H5.33122C4.41074 20.3333 3.66455 19.5871 3.66455 18.6667V16.1667ZM9.49788 16.1667H5.33122V18.6667H9.49788V16.1667Z" />
</svg>
