<svg width="20" height="20" viewBox="0 0 20 20" fill="none" xmlns="http://www.w3.org/2000/svg">
	<path d="M10 20C15.5228 20 20 15.5228 20 10C20 4.47715 15.5228 0 10 0C4.47715 0 0 4.47715 0 10C0 15.5228 4.47715 20 10 20Z" fill="white" />
	<path opacity="0.6" d="M9.92648 8.26318L5.83331 10.1247L9.92648 12.543L14.018 10.1247L9.92648 8.26318Z" fill="#010101" />
	<path opacity="0.45" d="M5.83331 10.1247L9.92648 12.543V3.33337L5.83331 10.1247Z" fill="#010101" />
	<path opacity="0.8" d="M9.92511 3.33337V12.543L14.0167 10.1247L9.92511 3.33337Z" fill="#010101" />
	<path opacity="0.45" d="M5.83331 10.9003L9.92648 16.6667V13.3185L5.83331 10.9003Z" fill="#010101" />
	<path opacity="0.8" d="M9.92511 13.3184V16.6666L14.0199 10.9001L9.92511 13.3184Z" fill="#010101" />
</svg>
