<svg width="24" height="24" viewBox="0 0 24 24" fill="currentColor" xmlns="http://www.w3.org/2000/svg">
	<path d="M18.3454 15.4565L18.9409 14.007C19.1001 13.6197 18.9156 13.1758 18.5275 13.0163L18.1984 12.8811C17.8103 12.7216 17.5289 12.3212 17.5279 11.9852C17.5266 11.6499 17.8063 11.2476 18.1931 11.0862L18.522 10.9491C18.9087 10.7881 19.0919 10.3429 18.9301 9.95609L18.3266 8.50996C18.1652 8.12279 17.7207 7.94033 17.3338 8.10139L17.005 8.23887C16.6178 8.40064 16.1355 8.31674 15.8978 8.07941C15.6598 7.84236 15.5734 7.36064 15.7329 6.97289L15.8681 6.64403C16.0273 6.25598 15.8422 5.81251 15.4542 5.65303L14.005 5.05726C13.6175 4.89779 13.1737 5.08283 13.0145 5.47058L12.8791 5.79972C12.7196 6.18777 12.3192 6.46964 11.9832 6.47048C11.6478 6.47106 11.2458 6.19177 11.0841 5.80501L10.9473 5.47616C10.7858 5.0894 10.341 4.90653 9.95397 5.06799L8.50795 5.67167C8.12077 5.83272 7.93801 6.27753 8.09977 6.6647L8.23683 6.99312C8.3986 7.38029 8.31441 7.86216 8.07707 8.10048C7.8403 8.33811 7.35858 8.42488 6.97097 8.26498L6.64182 8.13008C6.25376 7.97061 5.81053 8.15594 5.65106 8.54369L5.05527 9.99284C4.8958 10.3806 5.08113 10.8244 5.4686 10.9836L5.79831 11.1192C6.18579 11.2787 6.46752 11.6788 6.46855 12.0148C6.46955 12.3506 6.18983 12.7521 5.80306 12.9139L5.4742 13.0509C5.08702 13.2127 4.90456 13.6572 5.06602 14.044L5.66972 15.4897C5.83077 15.8772 6.27559 16.0601 6.66276 15.8983L6.99119 15.7612C7.37837 15.6002 7.86025 15.6839 8.09858 15.9207C8.33621 16.1577 8.42299 16.6394 8.26309 17.0275L8.12818 17.3559C7.96899 17.744 8.15404 18.1882 8.5418 18.3474L9.99098 18.9428C10.3787 19.102 10.823 18.9174 10.982 18.5297L11.1172 18.2008C11.2767 17.8128 11.6768 17.531 12.0128 17.5301C12.3486 17.5288 12.7502 17.8083 12.9119 18.1952L13.049 18.5241C13.2108 18.9111 13.6548 19.094 14.0423 18.9322L15.4881 18.3286C15.8751 18.1671 16.0577 17.7227 15.8963 17.3358L15.7592 17.007C15.5977 16.6198 15.6819 16.1375 15.9187 15.8999C16.1557 15.6615 16.6374 15.5752 17.0252 15.7347L17.3541 15.8698C17.742 16.0292 18.1859 15.8441 18.3454 15.4565L18.3454 15.4565ZM10.8898 14.6968C9.40026 14.0846 8.68909 12.3805 9.30099 10.8917C9.91388 9.40215 11.6174 8.69144 13.1073 9.30329C14.5961 9.91572 15.3073 11.6193 14.6951 13.1088C14.0825 14.5979 12.379 15.3093 10.8899 14.6969L10.8898 14.6968Z" />
</svg>
