<svg width="24" height="24" viewBox="0 0 24 24" fill="currentColor" xmlns="http://www.w3.org/2000/svg">
	<path fill-rule="evenodd" d="M17.198 17.679V10.5763C17.198 10.4336 17.1379 10.2951 17.0286 10.1954L12.3619 5.94015C12.157 5.75328 11.8391 5.75328 11.6342 5.94015L6.9675 10.1954C6.85818 10.2951 6.79805 10.4336 6.79805 10.5763V17.679C6.79805 17.9578 7.02786 18.2 7.33138 18.2H16.6647C16.9682 18.2 17.198 17.9578 17.198 17.679ZM5.75469 8.86534C5.27256 9.30497 4.99805 9.9257 4.99805 10.5763V17.679C4.99805 18.9608 6.04272 20 7.33138 20H16.6647C17.9534 20 18.998 18.9608 18.998 17.679V10.5763C18.998 9.9257 18.7235 9.30497 18.2414 8.86534L13.5747 4.61008C12.6827 3.79664 11.3134 3.79664 10.4214 4.61008L5.75469 8.86534Z" />
</svg>
