<svg width="24" height="24" viewBox="0 0 24 24" fill="currentColor" xmlns="http://www.w3.org/2000/svg">
	<path d="M11.6169 2.93666C12.7918 2.19955 14.1821 1.88299 15.5603 2.03877C16.9385 2.19454 18.2231 2.81343 19.2039 3.79419C20.1846 4.77495 20.8035 6.05951 20.9593 7.43773C21.1151 8.81596 20.7985 10.2063 20.0614 11.3812C19.3243 12.5561 18.2103 13.4461 16.9016 13.9056C15.7582 14.307 14.5254 14.359 13.3587 14.0615L12.56 14.8602C12.4068 15.0134 12.199 15.0994 11.9824 15.0994H11.1657V16.733C11.1657 17.184 10.8 17.5497 10.3489 17.5497H8.71538V19.1832C8.71538 19.6343 8.3497 20 7.89862 20H4.63157C4.20093 20 3.7786 19.8529 3.46188 19.5362C3.14516 19.2194 2.99805 18.7971 2.99805 18.3665V15.9162C2.99805 15.6996 3.0841 15.4918 3.23727 15.3387L8.93656 9.63937C8.63902 8.47265 8.69106 7.23984 9.09249 6.09647C9.55196 4.78778 10.442 3.67376 11.6169 2.93666ZM15.3769 3.66196C14.3662 3.54772 13.3466 3.77986 12.485 4.32041C11.6234 4.86095 10.9707 5.6779 10.6338 6.6376C10.2968 7.59731 10.2956 8.64295 10.6302 9.60347C10.7332 9.89936 10.6579 10.2281 10.4364 10.4497L4.63157 16.2545V18.3665H7.08186V16.733C7.08186 16.2819 7.44753 15.9162 7.89862 15.9162H9.53214V14.2827C9.53214 13.8316 9.89782 13.4659 10.3489 13.4659H11.6441L12.5484 12.5617C12.7699 12.3401 13.0987 12.2648 13.3946 12.3679C14.3551 12.7025 15.4007 12.7012 16.3604 12.3643C17.3201 12.0273 18.1371 11.3747 18.6776 10.5131C19.2182 9.65145 19.4503 8.6319 19.3361 7.6212C19.2219 6.6105 18.768 5.66849 18.0488 4.94927C17.3296 4.23004 16.3875 3.77619 15.3769 3.66196Z" />
	<path d="M13.998 7.5C13.998 6.67157 14.6696 6 15.498 6C16.3265 6 16.998 6.67157 16.998 7.5C16.998 8.32843 16.3265 9 15.498 9C14.6696 9 13.998 8.32843 13.998 7.5Z" />
</svg>
