<svg width="24" height="24" viewBox="0 0 24 24" fill="currentColor" xmlns="http://www.w3.org/2000/svg">
	<path d="M11.8167 3.39059C11.8883 3.23625 12.1078 3.23625 12.1794 3.39059L14.501 8.38957C14.5301 8.45232 14.5896 8.49555 14.6583 8.50387L20.13 9.16703C20.299 9.18751 20.3668 9.3962 20.2421 9.51206L16.2052 13.2648C16.1546 13.3119 16.1318 13.3818 16.1451 13.4497L17.2053 18.8585C17.238 19.0255 17.0605 19.1545 16.9118 19.0718L12.0953 16.3921C12.0348 16.3585 11.9613 16.3585 11.9008 16.3921L7.08431 19.0718C6.9356 19.1545 6.75808 19.0255 6.79081 18.8585L7.85096 13.4497C7.86427 13.3818 7.84154 13.3119 7.79087 13.2648L3.75396 9.51206C3.62932 9.3962 3.69713 9.18751 3.86607 9.16703L9.33777 8.50387C9.40646 8.49555 9.46596 8.45232 9.4951 8.38956L11.8167 3.39059Z" />
</svg>
