<svg width="20" height="20" viewBox="0 0 20 20" fill="none" xmlns="http://www.w3.org/2000/svg">
	<path d="M10 20C15.5228 20 20 15.5228 20 10C20 4.47715 15.5228 0 10 0C4.47715 0 0 4.47715 0 10C0 15.5228 4.47715 20 10 20Z" fill="white" />
	<path opacity="0.6" d="M14.102 9.28955L14.214 9.4613C15.4767 11.3984 15.1947 13.9352 13.536 15.5605C12.5601 16.5166 11.2812 16.9948 10.0022 16.9949C10.0022 16.9949 10.0022 16.9949 14.102 9.28955Z" fill="#00A3FF" />
	<path opacity="0.2" d="M10.0017 11.6314L14.1016 9.28955C10.0018 16.9949 10.0017 16.9949 10.0017 16.9949C10.0017 15.3167 10.0017 13.3938 10.0017 11.6314Z" fill="#00A3FF" />
	<path d="M5.89799 9.28955L5.78603 9.4613C4.52329 11.3984 4.8053 13.9352 6.46405 15.5605C7.43988 16.5166 8.71883 16.9948 9.99781 16.9949C9.99781 16.9949 9.99781 16.9949 5.89799 9.28955Z" fill="#00A3FF" />
	<path opacity="0.6" d="M9.99665 11.6314L5.89682 9.28955C9.99665 16.9949 9.99665 16.9949 9.99665 16.9949C9.99665 15.3167 9.99665 13.3938 9.99665 11.6314Z" fill="#00A3FF" />
	<path opacity="0.2" d="M10.0033 6.39966V10.4387L13.5348 8.42049L10.0033 6.39966Z" fill="#00A3FF" />
	<path opacity="0.6" d="M10.0022 6.39966L6.46811 8.42044L10.0022 10.4387V6.39966Z" fill="#00A3FF" />
	<path d="M10.0022 3.00293L6.46811 8.42185L10.0022 6.39537V3.00293Z" fill="#00A3FF" />
	<path opacity="0.6" d="M10.0033 6.39472L13.5375 8.42124L10.0033 2.99963V6.39472Z" fill="#00A3FF" />
</svg>
