<svg width="24" height="24" viewBox="0 0 24 24" fill="currentColor" xmlns="http://www.w3.org/2000/svg">
	<path fill-rule="evenodd" d="M17.398 7.6H18.298C19.7892 7.6 20.998 8.80883 20.998 10.3V17.5C20.998 18.9912 19.7892 20.2 18.298 20.2H5.69805C4.20688 20.2 2.99805 18.9912 2.99805 17.5V6.7C2.99805 5.20883 4.20688 4 5.69805 4H14.698C16.1892 4 17.398 5.20883 17.398 6.7V7.6ZM18.298 14.8H19.198V13H18.298C17.801 13 17.398 13.4029 17.398 13.9C17.398 14.3971 17.801 14.8 18.298 14.8ZM19.198 11.2H18.298C16.8069 11.2 15.598 12.4088 15.598 13.9C15.598 15.3911 16.8069 16.6 18.298 16.6H19.198V17.5C19.198 17.997 18.7951 18.4 18.298 18.4H5.69805C5.20099 18.4 4.79805 17.997 4.79805 17.5V9.24696C5.08719 9.34868 5.39154 9.40042 5.69805 9.39996H18.298C18.7951 9.39996 19.198 9.8029 19.198 10.3V11.2ZM14.698 5.8H5.69805C5.20099 5.8 4.79805 6.20294 4.79805 6.7C4.79805 7.19706 5.20099 7.6 5.69805 7.6H15.598V6.7C15.598 6.20294 15.1951 5.8 14.698 5.8Z" />
</svg>
